<?xml version="1.0" encoding="UTF-8"?><svg id="Calque_2" xmlns="http://www.w3.org/2000/svg" xmlns:xlink="http://www.w3.org/1999/xlink" viewBox="0 0 148.06 211.37"><defs><style>.cls-1{fill:url(#Dégradé_sans_nom_81-2);}.cls-1,.cls-2,.cls-3,.cls-4,.cls-5,.cls-6,.cls-7{stroke-width:0px;}.cls-2{fill:#47297b;}.cls-3{fill:url(#Dégradé_sans_nom_73);}.cls-4{fill:url(#Dégradé_sans_nom_78);}.cls-5{fill:url(#Dégradé_sans_nom_71);}.cls-6{fill:url(#Dégradé_sans_nom_81);}.cls-7{fill:#fcfcfc;}</style><radialGradient id="Dégradé_sans_nom_71" cx="74.03" cy="74.05" fx="74.03" fy="74.05" r="72.61" gradientUnits="userSpaceOnUse"><stop offset=".8" stop-color="#4e2d8c"/><stop offset="1" stop-color="#2e1d50"/></radialGradient><radialGradient id="Dégradé_sans_nom_73" cx="74.03" cy="74.05" fx="74.03" fy="74.05" r="58.38" gradientUnits="userSpaceOnUse"><stop offset=".8" stop-color="#f7d06f"/><stop offset="1" stop-color="#f3b621"/></radialGradient><linearGradient id="Dégradé_sans_nom_81" x1="40.28" y1="206.77" x2="40.28" y2="88.68" gradientUnits="userSpaceOnUse"><stop offset="0" stop-color="#2e1d50"/><stop offset="1" stop-color="#4e2d8c"/></linearGradient><linearGradient id="Dégradé_sans_nom_81-2" x1="107.77" y1="206.77" x2="107.77" xlink:href="#Dégradé_sans_nom_81"/><linearGradient id="Dégradé_sans_nom_78" x1="74.03" y1="207.11" x2="74.03" y2="112.32" gradientUnits="userSpaceOnUse"><stop offset="0" stop-color="#f3b621"/><stop offset="1" stop-color="#f7d06f"/></linearGradient></defs><g id="Calque_1-2"><path class="cls-5" d="M74.03,146.67c-3.19,0-6.34-.82-9.13-2.38l-8.43-4.73-9.66-.12c-6.45-.08-12.51-3.58-15.81-9.13l-4.93-8.31-8.31-4.94c-5.55-3.3-9.05-9.36-9.13-15.81l-.12-9.66-4.73-8.43c-3.16-5.63-3.16-12.62,0-18.25l4.73-8.43.12-9.66c.08-6.45,3.58-12.51,9.13-15.81l8.31-4.94,4.93-8.31c3.3-5.55,9.36-9.04,15.81-9.12l9.66-.12,8.43-4.73c2.78-1.56,5.94-2.39,9.13-2.39s6.34.82,9.13,2.39l8.43,4.73,9.66.12c6.45.08,12.51,3.58,15.8,9.12l4.94,8.31,8.31,4.94c5.55,3.29,9.04,9.35,9.12,15.8l.12,9.66,4.73,8.43c3.16,5.63,3.16,12.62,0,18.25l-4.73,8.43-.12,9.66c-.08,6.45-3.58,12.51-9.12,15.81l-8.31,4.94-4.94,8.31c-3.29,5.55-9.35,9.05-15.8,9.13l-9.66.12-8.43,4.73c-2.78,1.56-5.94,2.38-9.13,2.38Z"/><path class="cls-7" d="M74.03,2.85c2.91,0,5.81.73,8.43,2.2l8.74,4.9,10.02.13c6,.07,11.53,3.27,14.6,8.43l5.12,8.62,8.62,5.12c5.16,3.06,8.35,8.59,8.43,14.6l.13,10.02,4.9,8.75c2.94,5.23,2.94,11.62,0,16.86l-4.9,8.74-.13,10.02c-.07,6-3.27,11.53-8.43,14.6l-8.62,5.12-5.12,8.62c-3.06,5.16-8.59,8.36-14.6,8.43l-10.02.13-8.74,4.9c-2.62,1.47-5.52,2.2-8.43,2.2s-5.81-.73-8.43-2.2l-8.74-4.9-10.02-.13c-6-.07-11.53-3.27-14.6-8.43l-5.12-8.62-8.62-5.12c-5.16-3.07-8.36-8.6-8.43-14.6l-.12-10.02-4.91-8.74c-2.94-5.23-2.94-11.62,0-16.86l4.91-8.75.12-10.02c.07-6,3.27-11.53,8.43-14.6l8.62-5.12,5.12-8.62c3.07-5.16,8.6-8.35,14.6-8.43l10.02-.13,8.74-4.9c2.62-1.47,5.52-2.2,8.43-2.2M74.03,0c-3.43,0-6.83.89-9.82,2.57l-8.11,4.55-9.3.12c-6.95.09-13.46,3.85-17.01,9.82l-4.75,8-8,4.75c-5.97,3.55-9.74,10.07-9.82,17.01l-.11,9.3-4.55,8.11c-3.4,6.06-3.4,13.59,0,19.64l4.55,8.11.11,9.3c.09,6.94,3.85,13.46,9.82,17.01l8,4.75,4.75,7.99c3.55,5.97,10.07,9.74,17.01,9.82l9.3.12,8.11,4.55c2.99,1.68,6.39,2.57,9.82,2.57s6.83-.89,9.82-2.57l8.11-4.55,9.3-.12c6.95-.09,13.47-3.85,17.01-9.82l4.75-7.99,8-4.75c5.97-3.55,9.73-10.07,9.82-17.01l.12-9.3,4.55-8.11c3.4-6.06,3.4-13.59,0-19.64l-4.55-8.11-.12-9.3c-.09-6.95-3.85-13.47-9.82-17.01l-8-4.75-4.75-8c-3.55-5.97-10.06-9.73-17.01-9.82l-9.3-.12-8.11-4.55c-2.99-1.68-6.39-2.57-9.82-2.57h0Z"/><path class="cls-3" d="M74.03,132.43c-2.6,0-5.17-.67-7.44-1.94l-6.68-3.75-7.66-.1c-5.26-.07-10.2-2.92-12.89-7.44l-3.91-6.58-6.58-3.91c-4.52-2.69-7.37-7.62-7.44-12.89l-.1-7.66-3.74-6.68c-2.57-4.59-2.57-10.29,0-14.88l3.74-6.68.1-7.66c.07-5.26,2.92-10.2,7.44-12.89l6.58-3.91,3.91-6.58c2.69-4.52,7.62-7.37,12.89-7.44l7.66-.1,6.68-3.75c2.27-1.27,4.84-1.94,7.44-1.94s5.17.67,7.44,1.94l6.68,3.75,7.66.1c5.26.07,10.2,2.92,12.89,7.44l3.91,6.58,6.59,3.91c4.52,2.69,7.37,7.62,7.44,12.89l.1,7.66,3.75,6.68c2.57,4.59,2.57,10.29,0,14.88l-3.75,6.68-.1,7.66c-.07,5.26-2.92,10.2-7.44,12.89l-6.59,3.91-3.91,6.58c-2.69,4.52-7.62,7.38-12.89,7.44l-7.66.1-6.68,3.75c-2.27,1.27-4.84,1.94-7.44,1.94Z"/><path class="cls-7" d="M74.03,17.09c2.32,0,4.65.59,6.74,1.76l6.99,3.92,8.02.1c4.8.06,9.23,2.61,11.68,6.74l4.1,6.89,6.9,4.1c4.13,2.45,6.68,6.88,6.74,11.68l.1,8.02,3.92,7c2.35,4.19,2.35,9.3,0,13.48l-3.92,6.99-.1,8.02c-.06,4.8-2.61,9.23-6.74,11.68l-6.9,4.1-4.1,6.89c-2.45,4.13-6.88,6.68-11.68,6.74l-8.02.1-6.99,3.92c-2.09,1.17-4.42,1.76-6.74,1.76s-4.65-.59-6.74-1.76l-6.99-3.92-8.02-.1c-4.8-.06-9.23-2.61-11.68-6.74l-4.1-6.89-6.89-4.1c-4.13-2.45-6.68-6.87-6.74-11.68l-.1-8.02-3.92-6.99c-2.35-4.19-2.35-9.3,0-13.48l3.92-7,.1-8.02c.06-4.8,2.61-9.23,6.74-11.68l6.89-4.1,4.1-6.89c2.45-4.13,6.88-6.68,11.68-6.74l8.02-.1,6.99-3.92c2.09-1.17,4.42-1.76,6.74-1.76M74.03,14.24c-2.84,0-5.66.74-8.14,2.13l-6.36,3.57-7.29.09c-5.75.07-11.15,3.19-14.09,8.14l-3.73,6.27-6.27,3.73c-4.95,2.94-8.07,8.34-8.14,14.09l-.09,7.3-3.57,6.37c-2.81,5.02-2.81,11.25,0,16.27l3.57,6.36.09,7.29c.07,5.75,3.19,11.15,8.14,14.09l6.27,3.73,3.73,6.27c2.94,4.95,8.34,8.06,14.09,8.14l7.29.09,6.36,3.57c2.48,1.39,5.29,2.13,8.14,2.13s5.66-.74,8.14-2.13l6.36-3.57,7.29-.09c5.75-.07,11.15-3.19,14.09-8.14l3.72-6.27,6.27-3.73c4.95-2.94,8.06-8.34,8.13-14.09l.09-7.29,3.57-6.36c2.82-5.02,2.82-11.26,0-16.27l-3.57-6.36-.09-7.29c-.07-5.75-3.19-11.15-8.13-14.09l-6.27-3.73-3.72-6.27c-2.94-4.95-8.34-8.07-14.09-8.14l-7.29-.09-6.36-3.57c-2.48-1.39-5.29-2.13-8.14-2.13h0Z"/><path class="cls-6" d="M40.16,185l-17.95,19.71,12.91-116.04,2.16,4.2c4.35,8.46,11.54,15.22,20.24,19.02l.85.37v50.12l-4.93,44.37-13.27-21.76Z"/><path class="cls-7" d="M36,93.53c4.49,8.74,11.9,15.73,20.94,19.68v49.11l-4.47,40.15-12.09-19.83-16.28,17.87,11.9-106.98M34.22,83.82l-1.04,9.39-11.9,106.98-.97,8.72,5.91-6.48,13.72-15.06,10.11,16.58,4.34,7.12.92-8.29,4.47-40.15.02-.16v-51.13l-1.71-.75c-8.41-3.67-15.35-10.2-19.54-18.37l-4.32-8.41h0Z"/><path class="cls-1" d="M89.69,162.4v-50.12l.85-.37c8.71-3.8,15.89-10.56,20.24-19.02l2.16-4.2,12.91,116.04-17.96-19.71-13.27,21.77-4.94-44.37Z"/><path class="cls-7" d="M112.05,93.53l11.9,106.98-16.28-17.87-12.09,19.83-4.47-40.15v-49.11c9.04-3.95,16.45-10.94,20.94-19.68M113.84,83.82l-4.32,8.41c-4.2,8.17-11.14,14.69-19.54,18.37l-1.71.75v51.13l.02.16,4.47,40.15.92,8.29,4.34-7.12,10.11-16.58,13.73,15.06,5.9,6.48-.97-8.71-11.9-106.98-1.04-9.39h0Z"/><path class="cls-4" d="M74.03,186.29l-15.66,20.82v-94.79l1.9.67c.78.27,1.56.52,2.32.74,3.7,1.07,7.55,1.61,11.45,1.61s7.75-.54,11.44-1.61c.77-.22,1.55-.47,2.32-.74l1.9-.67v94.79l-15.66-20.82Z"/><path class="cls-7" d="M88.27,114.34v88.51l-14.24-18.92-14.24,18.92v-88.51c.79.28,1.59.54,2.4.77,3.76,1.09,7.73,1.66,11.84,1.66s8.08-.58,11.84-1.66c.81-.23,1.61-.49,2.4-.77M91.11,110.31l-3.79,1.34c-.75.26-1.5.5-2.24.71-3.58,1.03-7.29,1.55-11.06,1.55s-7.48-.52-11.05-1.55c-.74-.21-1.5-.45-2.25-.72l-3.79-1.34v101.06l5.12-6.81,11.96-15.9,11.96,15.9,5.12,6.81v-101.06h0Z"/><path class="cls-7" d="M74.03,118.19c-24.34,0-44.14-19.8-44.14-44.14s19.8-44.14,44.14-44.14,44.14,19.8,44.14,44.14-19.8,44.14-44.14,44.14Z"/><path class="cls-7" d="M74.03,31.33c23.59,0,42.72,19.13,42.72,42.72s-19.13,42.72-42.72,42.72-42.72-19.13-42.72-42.72,19.13-42.72,42.72-42.72M74.03,28.48c-25.13,0-45.57,20.44-45.57,45.57s20.44,45.57,45.57,45.57,45.57-20.44,45.57-45.57-20.44-45.57-45.57-45.57h0Z"/><path class="cls-2" d="M106.64,64.05c-.95-1.43-3.13-6.05-3.02-6.42.08-.31-.02-.46-.46-.56-.39-.1-.52-.23-.43-.48.06-.19.29-.85.5-1.47.23-.62.37-1.18.33-1.22-.12-.14-.54.25-1.1,1.02l-.58.81.09-1.08.08-1.08-.68.75c-.37.39-.77.89-.89,1.08-.17.29-.33.33-.89.17-.37-.13-1.32-.27-2.11-.35-1.22-.12-1.45-.08-1.45.19,0,.23-.31.35-1.2.46-.66.06-1.32.1-1.47.06-.17-.04-.35.12-.42.35-.31,1.06-.56,1.24-1.63,1.18-.75-.02-1.1.06-1.3.31-.17.19-.85.75-1.53,1.26l-1.24.91-.27-.66c-.27-.68-.7-4.54-.52-4.83.04-.08.19-.1.29-.02.25.15,1.01-.5,1.01-.87,0-.15.19-.46.44-.68.27-.25.39-.54.31-.79-.08-.27.06-.48.5-.73l.6-.33-1.2-1.26c-1.04-1.08-1.3-1.26-1.95-1.26-1.68,0-2.75,1.18-2.57,2.79.1,1.06-.04,1.22-1.16,1.43-.42.08-1.45.5-2.28.95-1.08.56-2.07.89-3.48,1.16-2.28.41-3.79,1.03-4.58,1.88l-.58.6.6.35c.46.27.7.64.93,1.45.35,1.2.77,1.68,3.37,3.67.95.7,1.66,1.39,1.57,1.49-.21.35-3.54.06-4.93-.44-2.07-.74-1.97-.74-1.97-.19,0,.27.17.83.4,1.26l.37.74-.64.23c-.35.11-2.24.21-4.16.21-3.52-.02-4.95.15-6.77.75l-.99.31-1.24-.77c-1.16-.7-1.32-.75-2.46-.64-1.59.15-2.75.68-5.57,2.59-3.79,2.57-4.29,2.82-5.84,2.82-1.08,0-1.57-.1-2.42-.56-.77-.39-1.1-.48-1.1-.29,0,.5,1.28,1.59,2.26,1.91l.95.31-1.24-.1c-.68-.06-1.47-.17-1.74-.23-.33-.11-.46-.08-.35.08.27.46,2.5,1.12,3.83,1.14,1.03,0,1.22.04.83.21-.27.11-1.28.13-2.26.06l-1.76-.1.81.5c.43.25,1.18.54,1.65.6.89.15,2.75-.13,3.44-.5.21-.11.46-.21.56-.21.31,0-1.55.99-2.65,1.41l-1.08.39.79.13c1.35.23,3.04-.23,4.76-1.26l.83-.52-.62.68c-.33.37-1.03.95-1.55,1.28l-.93.6.93-.15c1.22-.17,3.21-1.22,4.22-2.24.5-.5,1.14-1.55,1.72-2.79,1.76-3.85,1.8-3.89,3-3.67l.75.15-.68,1.14c-.81,1.34-1.06,2.71-.85,5.03.1,1.26.06,1.68-.21,2.05-.39.56-1.76,1.26-3.65,1.89-1.72.58-2.34,1.22-2.51,2.67-.15,1.28-1.34,4.24-2.19,5.51-.54.79-.85,1.01-1.61,1.22-.52.12-1.08.43-1.22.66-.35.56-1.12,2.73-1.12,3.23,0,.66.58,1.01,1.7,1.01,1.2,0,1.97-.46,2.65-1.55.25-.4.97-1.1,1.63-1.55.97-.68,1.26-1.01,1.47-1.72.4-1.35,1.62-3.91,2.13-4.45,1.1-1.18,1.8-1.35,6.15-1.47,3.77-.12,4.1-.17,5.05-.64,1.22-.62,2.82-2.13,3.29-3.15.6-1.26,1.03-1.51,2.92-1.57,1.28-.06,2.42.08,4.8.56,3.56.72,5.65.81,8.14.31,1.51-.31,1.76-.31,3.11,0,.79.19,2.3.33,3.31.33,1.2,0,1.89.08,1.89.23,0,.46-1.08,2.05-1.89,2.75-.56.52-1.01.75-1.45.75-1.22,0-2.63,2.24-2.07,3.29.15.23.37.43.54.43.5,0,2.16-.79,3.4-1.63,1.47-.99,2.28-2.07,3.85-5.13,1.08-2.07,1.24-2.3,1.59-2.11.56.31.33,1.74-.58,3.65-.42.88-.86,1.57-1.38,2.16-.03.03-.06.06-.09.08-.56.52-1.01.75-1.45.75-1.22,0-2.63,2.24-2.07,3.29.15.23.37.44.54.44.5,0,2.15-.79,3.4-1.63.09-.06.17-.12.26-.18.21-.15.4-.3.59-.47l.4-.39.26-.25c1.35-1.32,2.09-2.9,2.47-5.28.52-3.12.48-3.81-.23-4.41-.54-.48-.68-.5-2.15-.37-.91.08-2.01.04-2.59-.08q-1.66-.35-1.08-1.04c.79-.93,1.03-1.95.89-3.52-.1-1.22-.06-1.51.42-2.44.93-1.86,2.98-3.19,4.39-2.84,1.12.27,5.01,2.73,5.32,3.33.41.85.77,1.12,1.49,1.12,2.09,0,2.88-1.95,1.57-3.91ZM82.75,62.99c-.23.15-.46.21-.48.17-.04-.04-.73-.81-1.53-1.74l-1.45-1.68.85-.44c1.12-.56,1.18-.56,1.18.04,0,.77.37,1.57,1.16,2.55.7.85.7.87.27,1.1ZM84.59,60.57c-.68-.6-.83-1.1-.68-2.07.06-.52.19-.89.23-.83.06.04.27.81.48,1.68.37,1.57.37,1.59-.02,1.22ZM106.64,64.05c-.95-1.43-3.13-6.05-3.02-6.42.08-.31-.02-.46-.46-.56-.39-.1-.52-.23-.43-.48.06-.19.29-.85.5-1.47.23-.62.37-1.18.33-1.22-.12-.14-.54.25-1.1,1.02l-.58.81.09-1.08.08-1.08-.68.75c-.37.39-.77.89-.89,1.08-.17.29-.33.33-.89.17-.37-.13-1.32-.27-2.11-.35-1.22-.12-1.45-.08-1.45.19,0,.23-.31.35-1.2.46-.66.06-1.32.1-1.47.06-.17-.04-.35.12-.42.35-.31,1.06-.56,1.24-1.63,1.18-.75-.02-1.1.06-1.3.31-.17.19-.85.75-1.53,1.26l-1.24.91-.27-.66c-.27-.68-.7-4.54-.52-4.83.04-.08.19-.1.29-.02.25.15,1.01-.5,1.01-.87,0-.15.19-.46.44-.68.27-.25.39-.54.31-.79-.08-.27.06-.48.5-.73l.6-.33-1.2-1.26c-1.04-1.08-1.3-1.26-1.95-1.26-1.68,0-2.75,1.18-2.57,2.79.1,1.06-.04,1.22-1.16,1.43-.42.08-1.45.5-2.28.95-1.08.56-2.07.89-3.48,1.16-2.28.41-3.79,1.03-4.58,1.88l-.58.6.6.35c.46.27.7.64.93,1.45.35,1.2.77,1.68,3.37,3.67.95.7,1.66,1.39,1.57,1.49-.21.35-3.54.06-4.93-.44-2.07-.74-1.97-.74-1.97-.19,0,.27.17.83.4,1.26l.37.74-.64.23c-.35.11-2.24.21-4.16.21-3.52-.02-4.95.15-6.77.75l-.99.31-1.24-.77c-1.16-.7-1.32-.75-2.46-.64-1.59.15-2.75.68-5.57,2.59-3.79,2.57-4.29,2.82-5.84,2.82-1.08,0-1.57-.1-2.42-.56-.77-.39-1.1-.48-1.1-.29,0,.5,1.28,1.59,2.26,1.91l.95.31-1.24-.1c-.68-.06-1.47-.17-1.74-.23-.33-.11-.46-.08-.35.08.27.46,2.5,1.12,3.83,1.14,1.03,0,1.22.04.83.21-.27.11-1.28.13-2.26.06l-1.76-.1.81.5c.43.25,1.18.54,1.65.6.89.15,2.75-.13,3.44-.5.21-.11.46-.21.56-.21.31,0-1.55.99-2.65,1.41l-1.08.39.79.13c1.35.23,3.04-.23,4.76-1.26l.83-.52-.62.68c-.33.37-1.03.95-1.55,1.28l-.93.6.93-.15c1.22-.17,3.21-1.22,4.22-2.24.5-.5,1.14-1.55,1.72-2.79,1.76-3.85,1.8-3.89,3-3.67l.75.15-.68,1.14c-.81,1.34-1.06,2.71-.85,5.03.1,1.26.06,1.68-.21,2.05-.39.56-1.76,1.26-3.65,1.89-1.72.58-2.34,1.22-2.51,2.67-.15,1.28-1.34,4.24-2.19,5.51-.54.79-.85,1.01-1.61,1.22-.52.12-1.08.43-1.22.66-.35.56-1.12,2.73-1.12,3.23,0,.66.58,1.01,1.7,1.01,1.2,0,1.97-.46,2.65-1.55.25-.4.97-1.1,1.63-1.55.97-.68,1.26-1.01,1.47-1.72.4-1.35,1.62-3.91,2.13-4.45,1.1-1.18,1.8-1.35,6.15-1.47,3.77-.12,4.1-.17,5.05-.64,1.22-.62,2.82-2.13,3.29-3.15.6-1.26,1.03-1.51,2.92-1.57,1.28-.06,2.42.08,4.8.56,3.56.72,5.65.81,8.14.31,1.51-.31,1.76-.31,3.11,0,.79.19,2.3.33,3.31.33,1.2,0,1.89.08,1.89.23,0,.46-1.08,2.05-1.89,2.75-.56.52-1.01.75-1.45.75-1.22,0-2.63,2.24-2.07,3.29.15.23.37.43.54.43.5,0,2.16-.79,3.4-1.63,1.47-.99,2.28-2.07,3.85-5.13,1.08-2.07,1.24-2.3,1.59-2.11.56.31.33,1.74-.58,3.65-.42.88-.86,1.57-1.38,2.16-.03.03-.06.06-.09.08-.56.52-1.01.75-1.45.75-1.22,0-2.63,2.24-2.07,3.29.15.23.37.44.54.44.5,0,2.15-.79,3.4-1.63.09-.06.17-.12.26-.18.21-.15.4-.3.59-.47l.4-.39.26-.25c1.35-1.32,2.09-2.9,2.47-5.28.52-3.12.48-3.81-.23-4.41-.54-.48-.68-.5-2.15-.37-.91.08-2.01.04-2.59-.08q-1.66-.35-1.08-1.04c.79-.93,1.03-1.95.89-3.52-.1-1.22-.06-1.51.42-2.44.93-1.86,2.98-3.19,4.39-2.84,1.12.27,5.01,2.73,5.32,3.33.41.85.77,1.12,1.49,1.12,2.09,0,2.88-1.95,1.57-3.91ZM82.75,62.99c-.23.15-.46.21-.48.17-.04-.04-.73-.81-1.53-1.74l-1.45-1.68.85-.44c1.12-.56,1.18-.56,1.18.04,0,.77.37,1.57,1.16,2.55.7.85.7.87.27,1.1ZM84.59,60.57c-.68-.6-.83-1.1-.68-2.07.06-.52.19-.89.23-.83.06.04.27.81.48,1.68.37,1.57.37,1.59-.02,1.22ZM106.64,64.05c-.95-1.43-3.13-6.05-3.02-6.42.08-.31-.02-.46-.46-.56-.39-.1-.52-.23-.43-.48.06-.19.29-.85.5-1.47.23-.62.37-1.18.33-1.22-.12-.14-.54.25-1.1,1.02l-.58.81.09-1.08.08-1.08-.68.75c-.37.39-.77.89-.89,1.08-.17.29-.33.33-.89.17-.37-.13-1.32-.27-2.11-.35-1.22-.12-1.45-.08-1.45.19,0,.23-.31.35-1.2.46-.66.06-1.32.1-1.47.06-.17-.04-.35.12-.42.35-.31,1.06-.56,1.24-1.63,1.18-.75-.02-1.1.06-1.3.31-.17.19-.85.75-1.53,1.26l-1.24.91-.27-.66c-.27-.68-.7-4.54-.52-4.83.04-.08.19-.1.29-.02.25.15,1.01-.5,1.01-.87,0-.15.19-.46.44-.68.27-.25.39-.54.31-.79-.08-.27.06-.48.5-.73l.6-.33-1.2-1.26c-1.04-1.08-1.3-1.26-1.95-1.26-1.68,0-2.75,1.18-2.57,2.79.1,1.06-.04,1.22-1.16,1.43-.42.08-1.45.5-2.28.95-1.08.56-2.07.89-3.48,1.16-2.28.41-3.79,1.03-4.58,1.88l-.58.6.6.35c.46.27.7.64.93,1.45.35,1.2.77,1.68,3.37,3.67.95.7,1.66,1.39,1.57,1.49-.21.35-3.54.06-4.93-.44-2.07-.74-1.97-.74-1.97-.19,0,.27.17.83.4,1.26l.37.74-.64.23c-.35.11-2.24.21-4.16.21-3.52-.02-4.95.15-6.77.75l-.99.31-1.24-.77c-1.16-.7-1.32-.75-2.46-.64-1.59.15-2.75.68-5.57,2.59-3.79,2.57-4.29,2.82-5.84,2.82-1.08,0-1.57-.1-2.42-.56-.77-.39-1.1-.48-1.1-.29,0,.5,1.28,1.59,2.26,1.91l.95.31-1.24-.1c-.68-.06-1.47-.17-1.74-.23-.33-.11-.46-.08-.35.08.27.46,2.5,1.12,3.83,1.14,1.03,0,1.22.04.83.21-.27.11-1.28.13-2.26.06l-1.76-.1.81.5c.43.25,1.18.54,1.65.6.89.15,2.75-.13,3.44-.5.21-.11.46-.21.56-.21.31,0-1.55.99-2.65,1.41l-1.08.39.79.13c1.35.23,3.04-.23,4.76-1.26l.83-.52-.62.68c-.33.37-1.03.95-1.55,1.28l-.93.6.93-.15c1.22-.17,3.21-1.22,4.22-2.24.5-.5,1.14-1.55,1.72-2.79,1.76-3.85,1.8-3.89,3-3.67l.75.15-.68,1.14c-.81,1.34-1.06,2.71-.85,5.03.1,1.26.06,1.68-.21,2.05-.39.56-1.76,1.26-3.65,1.89-1.72.58-2.34,1.22-2.51,2.67-.15,1.28-1.34,4.24-2.19,5.51-.54.79-.85,1.01-1.61,1.22-.52.12-1.08.43-1.22.66-.35.56-1.12,2.73-1.12,3.23,0,.66.58,1.01,1.7,1.01,1.2,0,1.97-.46,2.65-1.55.25-.4.97-1.1,1.63-1.55.97-.68,1.26-1.01,1.47-1.72.4-1.35,1.62-3.91,2.13-4.45,1.1-1.18,1.8-1.35,6.15-1.47,3.77-.12,4.1-.17,5.05-.64,1.22-.62,2.82-2.13,3.29-3.15.6-1.26,1.03-1.51,2.92-1.57,1.28-.06,2.42.08,4.8.56,3.56.72,5.65.81,8.14.31,1.51-.31,1.76-.31,3.11,0,.79.19,2.3.33,3.31.33,1.2,0,1.89.08,1.89.23,0,.46-1.08,2.05-1.89,2.75-.56.52-1.01.75-1.45.75-1.22,0-2.63,2.24-2.07,3.29.15.23.37.43.54.43.5,0,2.16-.79,3.4-1.63,1.47-.99,2.28-2.07,3.85-5.13,1.08-2.07,1.24-2.3,1.59-2.11.56.31.33,1.74-.58,3.65-.42.88-.86,1.57-1.38,2.16-.03.03-.06.06-.09.08-.56.52-1.01.75-1.45.75-1.22,0-2.63,2.24-2.07,3.29.15.23.37.44.54.44.5,0,2.15-.79,3.4-1.63.09-.06.17-.12.26-.18.21-.15.4-.3.59-.47l.4-.39.26-.25c1.35-1.32,2.09-2.9,2.47-5.28.52-3.12.48-3.81-.23-4.41-.54-.48-.68-.5-2.15-.37-.91.08-2.01.04-2.59-.08q-1.66-.35-1.08-1.04c.79-.93,1.03-1.95.89-3.52-.1-1.22-.06-1.51.42-2.44.93-1.86,2.98-3.19,4.39-2.84,1.12.27,5.01,2.73,5.32,3.33.41.85.77,1.12,1.49,1.12,2.09,0,2.88-1.95,1.57-3.91ZM82.75,62.99c-.23.15-.46.21-.48.17-.04-.04-.73-.81-1.53-1.74l-1.45-1.68.85-.44c1.12-.56,1.18-.56,1.18.04,0,.77.37,1.57,1.16,2.55.7.85.7.87.27,1.1ZM84.59,60.57c-.68-.6-.83-1.1-.68-2.07.06-.52.19-.89.23-.83.06.04.27.81.48,1.68.37,1.57.37,1.59-.02,1.22ZM116.74,73.25c0-.31-.01-.62-.03-.93,0-.16-.01-.32-.02-.47,0-.13-.01-.25-.02-.38,0-.12-.01-.24-.02-.36-.01-.2-.03-.39-.04-.58,0-.04,0-.08-.01-.13,0-.11-.02-.21-.03-.32-.02-.24-.05-.48-.07-.72-.03-.25-.06-.5-.09-.75-.02-.18-.05-.36-.07-.54-.02-.18-.05-.35-.08-.53-.02-.12-.04-.24-.06-.36-.03-.16-.05-.31-.08-.47-.03-.16-.06-.32-.09-.49-.03-.15-.06-.3-.09-.45-.03-.17-.07-.33-.1-.5-.06-.29-.12-.58-.19-.87-.02-.09-.04-.17-.06-.26-.06-.24-.12-.49-.18-.73,0-.02,0-.03-.01-.05-.08-.3-.16-.6-.24-.89-.04-.15-.09-.3-.13-.46-.04-.15-.09-.31-.14-.46-.09-.3-.19-.61-.29-.91-.1-.3-.2-.6-.31-.9-.11-.3-.21-.6-.32-.89-.13-.32-.25-.65-.38-.97-.52-1.28-1.11-2.54-1.75-3.76-.16-.3-.32-.61-.49-.91-.13-.24-.27-.48-.41-.71-.12-.21-.24-.42-.37-.62-.18-.29-.36-.58-.54-.87-.19-.29-.37-.58-.57-.86-.09-.14-.19-.28-.29-.42-.19-.28-.39-.56-.6-.84-.2-.28-.4-.55-.62-.82-.21-.27-.42-.54-.64-.81-.11-.13-.21-.27-.32-.4-.22-.26-.44-.52-.66-.78-.11-.13-.22-.26-.34-.38-.11-.13-.23-.26-.34-.38-.12-.13-.23-.25-.35-.38-.23-.25-.47-.5-.71-.74-.12-.12-.24-.24-.36-.36-.19-.19-.39-.38-.58-.57-.1-.1-.2-.19-.3-.29-.2-.19-.4-.37-.6-.56-.25-.23-.51-.46-.77-.68-.19-.17-.38-.33-.58-.49-.16-.14-.32-.27-.49-.4-.08-.07-.15-.13-.23-.19-.15-.13-.31-.25-.47-.37-.21-.17-.42-.33-.64-.49-.27-.21-.55-.41-.83-.6-.28-.2-.56-.4-.85-.59-.28-.19-.57-.38-.86-.57h0c-.06-.04-.11-.07-.17-.11-.23-.15-.47-.3-.7-.44-.22-.14-.45-.27-.67-.4-.13-.08-.27-.16-.41-.24-.23-.13-.47-.26-.7-.39h0c-.3-.17-.6-.32-.91-.48h0c-.31-.16-.62-.31-.93-.46-.31-.15-.62-.29-.94-.44h0c-.31-.14-.63-.28-.95-.42-.32-.14-.64-.27-.96-.39-.32-.13-.65-.25-.98-.37-.24-.09-.49-.18-.74-.26-.25-.09-.5-.17-.75-.25-.33-.11-.67-.21-1-.31-.26-.08-.52-.15-.78-.22-.08-.02-.15-.04-.23-.06-.25-.07-.51-.14-.77-.2-.3-.08-.6-.15-.9-.22s-.6-.13-.91-.2c-.35-.07-.7-.14-1.05-.2-.35-.06-.7-.12-1.06-.17-.53-.08-1.07-.15-1.6-.21-.27-.03-.54-.06-.81-.09-.27-.03-.54-.05-.81-.07s-.54-.04-.81-.05c-.28-.02-.55-.03-.83-.04-.27-.01-.55-.02-.82-.02h0c-.28,0-.55,0-.83,0-23.59,0-42.72,19.13-42.72,42.72,0,.37,0,.73.01,1.1,0,.15,0,.3.01.45,0,.05,0,.11,0,.16,0,.16.01.32.02.49,0,.12.01.24.02.36,0,.09,0,.19.02.29,0,.03,0,.05,0,.07.01.17.03.34.04.51.01.18.03.36.05.54l.05.54c.01.13.03.26.05.4.02.18.04.36.07.54.02.18.05.36.07.54.02.16.05.32.07.48.01.11.03.21.05.32.03.19.06.37.09.55.03.18.07.36.1.55.03.18.07.36.11.55.15.73.31,1.45.49,2.16.03.13.07.26.1.4.02.07.04.14.06.21.11.4.22.79.34,1.18.07.23.14.46.21.69.07.23.15.45.22.68.12.34.24.69.36,1.03.06.17.13.34.19.51.05.13.1.26.15.39.06.15.12.3.18.46.16.39.32.78.5,1.16.07.17.15.33.22.49.11.25.23.5.35.74,0,0,0,.01.01.02.12.25.25.5.37.75.03.05.05.1.08.15,0,.01.01.03.02.04.03.05.05.09.07.14.05.09.1.19.15.28.02.04.04.08.06.12.03.06.06.11.09.17,0,0,0,.01.01.02,0,0,0,0,0,.01,0,0,.01.02.02.03.02.03.03.07.05.1.05.1.11.21.17.31.01.03.03.05.05.08.01.02.02.04.03.06h0c.08.15.17.3.25.45.04.07.08.14.12.21.02.04.04.07.06.11.09.16.19.32.28.47.02.03.04.07.06.1.03.06.07.12.11.18.05.09.11.17.16.26.06.09.12.19.18.28,0,0,0,.01.01.02.02.03.04.06.06.09,0,.01.02.03.03.05.03.05.06.1.09.15.03.05.07.1.1.15.06.09.11.17.17.26.07.1.13.2.21.3.07.11.15.21.22.32,0,0,0,0,0,0,.02.03.05.07.07.1,0,0,0,0,0,.01.07.1.14.19.21.29.03.04.06.08.09.12.04.06.08.11.12.17.06.09.12.17.18.25.12.16.23.32.35.48.05.07.1.13.15.2.04.06.09.11.13.17.1.13.21.27.31.4.02.03.04.05.06.08.11.14.22.28.33.42.07.08.13.16.2.24.01.01.03.03.04.04.01.01.02.03.03.04.01.02.02.03.03.05.04.05.08.09.12.14l.05.06s.06.07.09.11c.03.03.05.06.07.09.02.02.03.04.05.06.07.08.14.17.21.24.01.01.02.03.04.04,0,0,.01.01.02.02,0,0,0,0,0,0,.02.03.05.06.07.09.1.12.21.23.31.35.08.09.15.17.23.26.11.12.22.24.33.36l.02.02c.1.11.2.21.3.32.01.01.03.03.04.04,0,0,0,0,.01.01.12.12.24.24.35.37h0s0,0,0,0c.12.12.24.24.36.36.09.1.19.19.28.28.03.03.05.05.08.08.13.13.26.25.39.38.06.06.13.12.19.18.02.02.05.05.07.07.03.03.06.06.09.08.13.12.25.23.38.35.01.01.02.02.03.03.03.03.06.06.1.09.08.07.17.15.25.22.13.11.26.22.38.34.02.02.03.03.05.04.13.11.25.22.38.32.09.07.17.15.26.22.02.01.04.03.05.05,0,0,.02.01.03.02,0,0,0,0,.01,0,0,0,.01.01.02.02,0,0,0,0,.01,0,.01.01.02.02.04.03.05.04.09.08.14.11.05.04.09.07.14.11.03.03.07.06.11.09.07.06.15.12.22.18.18.14.35.28.53.42.02.01.03.03.05.04.05.04.11.08.16.12.07.05.13.1.2.15.13.1.27.2.4.3,0,0,0,0,0,0,.03.02.07.05.1.07,0,0,0,0,0,0,.06.04.11.08.17.12.05.03.09.07.14.1.14.1.28.2.43.3.14.1.28.19.42.28.11.08.23.15.34.23.03.02.06.04.09.06.21.14.42.28.64.41,0,0,.02.01.03.02.07.04.14.09.21.13.14.09.28.17.42.26,0,0,0,0,0,0,0,0,0,0,.01,0,.03.02.06.04.09.05.02.02.05.03.07.04.03.02.06.03.08.05.07.04.13.08.2.12.13.08.27.16.4.23.01,0,.03.02.04.03.02.01.04.03.06.04.04.03.08.05.12.07.04.03.09.05.13.08.04.03.09.05.13.07.12.07.24.13.36.2.02.01.04.02.06.03.01,0,.03.01.04.02.15.08.3.17.46.24.11.05.21.11.31.16.02,0,.03.02.05.02.03.02.07.04.11.05,0,0,.01,0,.02.01.06.03.12.06.19.09.14.07.27.14.41.2h0s.04.03.07.03c.07.04.14.07.22.11.07.04.14.07.21.1.04.02.08.04.13.06.06.03.12.05.18.08.09.04.18.08.26.12.05.02.1.05.14.07.03.02.07.03.1.05.02,0,.03.01.05.02.08.03.15.07.23.1.05.02.09.04.14.06h.02c.06.03.12.06.18.09.24.11.48.21.72.3.28.11.55.22.83.33.21.08.42.16.64.24.24.09.49.18.74.26.18.06.36.12.54.18.02,0,.04.01.07.02.03.01.06.02.09.03.03,0,.06.02.09.03.11.04.23.07.34.11,0,0,0,0,.01,0,.12.04.24.07.36.11h0s.01,0,.02,0c.2.06.4.12.61.18.22.06.43.12.65.18.03,0,.05.02.09.02.08.02.17.05.25.07.02,0,.04,0,.06.01.06.01.13.03.19.05.06.02.13.03.19.05.05.01.09.03.14.03.06.01.11.03.17.04.1.03.2.05.3.07h0s.07.02.11.03c.09.02.18.04.27.06.03,0,.05.01.08.02.02,0,.04,0,.05.01.05.01.11.03.16.04h0s.09.02.14.03h0c.12.03.24.05.37.08.09.02.19.04.29.06.05.01.09.02.14.03.1.02.2.04.29.06.04,0,.09.02.13.02.07.01.14.03.21.04.02,0,.05,0,.07.01.15.03.3.05.45.08,0,0,0,0,0,0,.05,0,.1.02.15.02.12.02.24.04.37.06.07.01.15.03.23.03.07.01.15.02.23.03.02,0,.05,0,.07,0,.09.01.18.03.27.04.09.01.18.03.27.03.05,0,.09.01.13.02.1.01.19.02.28.03.04,0,.08,0,.12.01.16.02.32.04.48.05.12.01.24.02.37.03.03,0,.06,0,.09,0,.04,0,.08,0,.12.01.03,0,.07,0,.1,0h0s.09,0,.13.01c.05,0,.11,0,.16.01.06,0,.12.01.18.01.07,0,.15.01.22.02h.01c.08,0,.15.01.23.01.05,0,.1,0,.15.01.03,0,.06,0,.09,0,.04,0,.07,0,.11,0h0c.09,0,.18.01.27.01.11,0,.21.01.32.01.04,0,.09,0,.13,0,.07,0,.15,0,.22,0,.14,0,.28.01.43.01.05,0,.1,0,.15,0,.03,0,.07,0,.1,0,.07,0,.14,0,.21,0,.21,0,.43,0,.65,0s.43,0,.65,0c.07,0,.14,0,.21,0,.03,0,.07,0,.1,0,.05,0,.1,0,.15,0,.15,0,.29,0,.43-.01.07,0,.15,0,.22,0,.04,0,.09,0,.13,0,.11,0,.21,0,.32-.01.09,0,.18,0,.27-.01h0s.07,0,.11,0c.03,0,.06,0,.09,0,.05,0,.1,0,.15-.01.07,0,.15,0,.23-.01h.01c.07,0,.15-.01.22-.02.06,0,.12,0,.18-.01.05,0,.11,0,.16-.01.04,0,.09,0,.13-.01h0s.07,0,.1,0c.04,0,.08,0,.12-.01.03,0,.06,0,.09,0,.13-.01.25-.02.37-.03.16-.02.32-.03.48-.05.04,0,.08,0,.12-.01.09,0,.19-.02.28-.03.04,0,.09-.01.13-.02.09,0,.18-.02.27-.03.09-.01.18-.03.27-.04.03,0,.05,0,.07,0,.08-.01.15-.02.23-.03.08,0,.15-.02.23-.03.12-.02.24-.04.37-.06.05,0,.1-.01.15-.02,0,0,0,0,0,0,.15-.02.3-.05.45-.08.03,0,.05,0,.07-.01.07-.01.14-.03.21-.04.04,0,.09-.01.13-.02.1-.02.2-.04.29-.06.05,0,.1-.02.14-.03.1-.02.19-.04.29-.06.11-.02.21-.04.31-.07.02,0,.04,0,.05-.01h0s.1-.02.14-.03h0c.06-.01.11-.02.16-.04.02,0,.04,0,.05-.01.03,0,.06-.01.08-.02.09-.02.18-.04.27-.06.04,0,.07-.02.11-.03h0c.1-.02.2-.05.3-.07.06-.01.11-.03.17-.04.05,0,.09-.02.14-.03.06-.01.13-.03.19-.05.06-.02.13-.03.19-.05.02,0,.04,0,.06-.01.09-.02.17-.05.25-.07.03,0,.06-.01.09-.02.15-.04.29-.08.44-.12.07-.02.14-.04.21-.06.21-.06.41-.12.61-.18,0,0,.02,0,.02,0h0c.12-.04.24-.07.36-.11,0,0,0,0,.01,0,.11-.04.23-.07.34-.11.03,0,.06-.02.09-.03.03-.01.06-.02.09-.03.02,0,.04-.01.07-.02.18-.06.36-.12.54-.18.25-.09.5-.17.74-.26.21-.08.42-.16.64-.24.28-.11.56-.22.83-.33.24-.1.48-.2.72-.3.06-.03.12-.05.18-.08,0,0,.01,0,.02,0,.05-.02.09-.04.14-.06.08-.03.15-.07.23-.1.02,0,.03-.01.05-.02.03-.01.07-.03.1-.05.05-.02.09-.04.14-.07.09-.04.18-.08.26-.12.06-.03.12-.05.18-.08.04-.02.09-.04.13-.06l.21-.1c.07-.03.15-.07.22-.11.02,0,.05-.02.07-.03h0c.14-.07.27-.14.41-.21.06-.03.12-.06.19-.09,0,0,.01,0,.02-.01.03-.02.07-.04.11-.05.02,0,.03-.01.05-.02.1-.05.21-.11.31-.16.15-.08.3-.16.46-.24.01,0,.02-.01.04-.02.02,0,.04-.02.06-.03.12-.06.24-.13.36-.2.05-.02.09-.05.13-.07.05-.02.09-.05.13-.08.04-.02.08-.04.12-.07.02-.01.04-.02.06-.04.01,0,.03-.02.04-.03.13-.07.27-.15.4-.23.07-.04.13-.08.2-.12.03-.01.05-.03.08-.05.02-.01.05-.03.07-.04.03-.02.06-.03.09-.05,0,0,0,0,.01,0,0,0,0,0,0,0,.14-.08.28-.17.42-.26.07-.04.14-.09.21-.13,0,0,.02-.01.03-.02.21-.13.42-.27.64-.41.03-.02.06-.04.09-.06.11-.07.23-.15.34-.23.14-.09.28-.19.42-.28.15-.1.29-.2.43-.3.05-.03.09-.07.14-.1.06-.04.11-.08.17-.12,0,0,0,0,0,0,.03-.02.07-.05.1-.07,0,0,0,0,0,0,.14-.1.27-.2.4-.3.07-.05.13-.1.2-.15.05-.04.11-.08.16-.12.02-.01.03-.03.05-.04.18-.14.36-.28.53-.42.07-.06.15-.12.22-.18.03-.03.07-.06.11-.09.05-.04.09-.07.14-.11.05-.04.1-.07.14-.11.01,0,.03-.02.04-.03,0,0,0,0,.01,0,0,0,.01-.01.02-.02,0,0,0,0,.01,0,0,0,.02-.01.03-.02.02-.01.04-.03.05-.05.09-.07.18-.15.26-.22.13-.11.25-.21.38-.32.02-.01.03-.03.05-.04.13-.11.26-.22.38-.34.09-.07.17-.15.25-.22.03-.03.07-.06.1-.09.01-.01.02-.02.03-.03.13-.12.25-.23.38-.35.03-.03.06-.05.09-.08.02-.02.05-.05.07-.07.06-.06.13-.12.19-.18.13-.12.26-.25.39-.38.03-.02.05-.05.08-.08.06-.06.12-.12.18-.18.04-.03.07-.07.1-.1.12-.12.24-.24.36-.36h0c.12-.13.24-.25.35-.37,0,0,0,0,.01-.01.09-.09.18-.19.26-.28.02-.02.04-.04.05-.06,0,0,.02-.02.02-.03.03-.03.05-.05.08-.08.05-.05.11-.11.15-.17.1-.11.21-.22.3-.33,0,0,0,0,0,0,.09-.09.17-.19.25-.28.08-.09.16-.19.24-.28.01-.01.03-.03.04-.04.01-.01.02-.02.03-.03.09-.11.18-.21.26-.31.11-.12.21-.25.31-.37,0,0,.01-.01.01-.02.01-.01.03-.03.04-.04.02-.02.03-.04.05-.06.07-.08.14-.17.2-.25.01-.01.02-.03.03-.04.02-.03.04-.05.06-.08.08-.09.15-.19.22-.28.11-.14.22-.28.33-.43,0-.01.02-.02.03-.04.05-.06.09-.12.14-.18,0-.01.02-.02.03-.03.05-.06.09-.12.13-.18.02-.02.03-.04.05-.06.09-.11.17-.23.26-.35.05-.06.09-.12.14-.19.15-.21.3-.42.45-.64,0,0,0,0,0-.01.03-.03.05-.07.07-.1.09-.13.17-.25.26-.38.09-.13.17-.25.26-.38.06-.09.12-.19.18-.28.03-.05.06-.1.09-.15.03-.05.06-.09.09-.13.05-.07.09-.15.14-.22.07-.11.14-.23.21-.34.05-.09.11-.17.16-.26.01-.02.03-.05.04-.07l.02-.03s.02-.03.03-.05c.04-.07.08-.14.12-.21.07-.12.14-.24.21-.36.02-.03.03-.06.05-.09.06-.1.11-.19.17-.29.01-.02.02-.04.03-.05.01-.02.02-.04.03-.06,0-.01.02-.03.03-.05,0,0,0-.01.01-.02.08-.14.16-.28.23-.43.01-.02.02-.04.03-.06.07-.13.14-.26.21-.39.08-.14.15-.28.22-.43.02-.03.03-.06.05-.09.07-.13.13-.26.2-.4.09-.18.17-.35.26-.53.07-.14.13-.28.2-.42.1-.22.2-.44.3-.66.11-.26.22-.51.33-.77.07-.16.13-.32.2-.48.26-.62.5-1.25.72-1.89.06-.17.12-.34.18-.52,0-.01,0-.03.01-.04.07-.21.14-.43.21-.64.07-.23.15-.46.21-.69.12-.39.23-.78.34-1.18.02-.07.04-.14.06-.21.03-.13.07-.26.1-.4.18-.71.34-1.43.49-2.16.04-.18.07-.36.11-.55.03-.18.07-.36.1-.55.03-.18.06-.37.09-.55.02-.11.03-.21.05-.32.03-.16.05-.32.07-.48.03-.18.05-.36.07-.54.02-.18.05-.36.07-.54.02-.13.03-.26.05-.4l.05-.54c.02-.18.03-.36.05-.54.01-.17.03-.34.04-.52,0-.01,0-.03,0-.04,0-.1.01-.21.02-.31,0-.12.01-.24.02-.36,0-.16.02-.32.02-.49,0-.05,0-.11,0-.16,0-.15.01-.3.01-.45,0-.37.01-.73.01-1.1,0-.26,0-.53,0-.79ZM73.76,105.24h-13.56v-.54h13.56v.54ZM73.76,102.42h-13.56v-1.7l13.56.71v.99ZM73.76,99.14l-13.56-.71v-2l13.56,1.43v1.28ZM73.76,95.57l-13.56-1.43v-1.86l13.56,2.15v1.14ZM76.69,105.24v-.54h2.49v.54h-2.49ZM79.18,95.29v.85l-2.49-.26v-.98l2.49.39ZM76.69,92.59v-1.1l2.49.53v.96l-2.49-.39ZM79.18,98.43v1l-2.49-.13v-1.13l2.49.26ZM79.18,101.71v.71h-2.49v-.84l2.49.13ZM82.12,105.24v-12.59l13.6,2.89v9.7h-13.6ZM98.65,103.57v-12.5c0-.68-.55-1.23-1.23-1.23h-.47c-.68,0-1.23.55-1.23,1.23v2.14l-13.6-2.89v-.67c0-.64-.52-1.16-1.16-1.16h-.62c-.64,0-1.16.52-1.16,1.16v.04l-2.49-.53v-5.2c0-.75-.6-1.35-1.35-1.35h-.24c-.75,0-1.35.6-1.35,1.35v8.16l-13.56-2.15v-6.01c0-.75-.6-1.35-1.35-1.35h-.24c-.74,0-1.35.6-1.35,1.35v21.27h-5.72c-9.67-6.98-15.97-18.35-15.97-31.19,0-21.23,17.21-38.45,38.45-38.45s38.45,17.21,38.45,38.45c0,11.87-5.38,22.47-13.83,29.52ZM99.58,55.56c-.37-.13-1.32-.27-2.11-.35-1.22-.12-1.45-.08-1.45.19,0,.23-.31.35-1.2.46-.66.06-1.32.1-1.47.06-.17-.04-.35.12-.42.35-.31,1.06-.56,1.24-1.63,1.18-.75-.02-1.1.06-1.3.31-.17.19-.85.75-1.53,1.26l-1.24.91-.27-.66c-.27-.68-.7-4.54-.52-4.83.04-.08.19-.1.29-.02.25.15,1.01-.5,1.01-.87,0-.15.19-.46.44-.68.27-.25.39-.54.31-.79-.08-.27.06-.48.5-.73l.6-.33-1.2-1.26c-1.04-1.08-1.3-1.26-1.95-1.26-1.68,0-2.75,1.18-2.57,2.79.1,1.06-.04,1.22-1.16,1.43-.42.08-1.45.5-2.28.95-1.08.56-2.07.89-3.48,1.16-2.28.41-3.79,1.03-4.58,1.88l-.58.6.6.35c.46.27.7.64.93,1.45.35,1.2.77,1.68,3.37,3.67.95.7,1.66,1.39,1.57,1.49-.21.35-3.54.06-4.93-.44-2.07-.74-1.97-.74-1.97-.19,0,.27.17.83.4,1.26l.37.74-.64.23c-.35.11-2.24.21-4.16.21-3.52-.02-4.95.15-6.77.75l-.99.31-1.24-.77c-1.16-.7-1.32-.75-2.46-.64-1.59.15-2.75.68-5.57,2.59-3.79,2.57-4.29,2.82-5.84,2.82-1.08,0-1.57-.1-2.42-.56-.77-.39-1.1-.48-1.1-.29,0,.5,1.28,1.59,2.26,1.91l.95.31-1.24-.1c-.68-.06-1.47-.17-1.74-.23-.33-.11-.46-.08-.35.08.27.46,2.5,1.12,3.83,1.14,1.03,0,1.22.04.83.21-.27.11-1.28.13-2.26.06l-1.76-.1.81.5c.43.25,1.18.54,1.65.6.89.15,2.75-.13,3.44-.5.21-.11.46-.21.56-.21.31,0-1.55.99-2.65,1.41l-1.08.39.79.13c1.35.23,3.04-.23,4.76-1.26l.83-.52-.62.68c-.33.37-1.03.95-1.55,1.28l-.93.6.93-.15c1.22-.17,3.21-1.22,4.22-2.24.5-.5,1.14-1.55,1.72-2.79,1.76-3.85,1.8-3.89,3-3.67l.75.15-.68,1.14c-.81,1.34-1.06,2.71-.85,5.03.1,1.26.06,1.68-.21,2.05-.39.56-1.76,1.26-3.65,1.89-1.72.58-2.34,1.22-2.51,2.67-.15,1.28-1.34,4.24-2.19,5.51-.54.79-.85,1.01-1.61,1.22-.52.12-1.08.43-1.22.66-.35.56-1.12,2.73-1.12,3.23,0,.66.58,1.01,1.7,1.01,1.2,0,1.97-.46,2.65-1.55.25-.4.97-1.1,1.63-1.55.97-.68,1.26-1.01,1.47-1.72.4-1.35,1.62-3.91,2.13-4.45,1.1-1.18,1.8-1.35,6.15-1.47,3.77-.12,4.1-.17,5.05-.64,1.22-.62,2.82-2.13,3.29-3.15.6-1.26,1.03-1.51,2.92-1.57,1.28-.06,2.42.08,4.8.56,3.56.72,5.65.81,8.14.31,1.51-.31,1.76-.31,3.11,0,.79.19,2.3.33,3.31.33,1.2,0,1.89.08,1.89.23,0,.46-1.08,2.05-1.89,2.75-.56.52-1.01.75-1.45.75-1.22,0-2.63,2.24-2.07,3.29.15.23.37.43.54.43.5,0,2.16-.79,3.4-1.63,1.47-.99,2.28-2.07,3.85-5.13,1.08-2.07,1.24-2.3,1.59-2.11.56.31.33,1.74-.58,3.65-.42.88-.86,1.57-1.38,2.16-.03.03-.06.06-.09.08-.56.52-1.01.75-1.45.75-1.22,0-2.63,2.24-2.07,3.29.15.23.37.44.54.44.5,0,2.15-.79,3.4-1.63.09-.06.17-.12.26-.18.21-.15.4-.3.59-.47l.4-.39.26-.25c1.35-1.32,2.09-2.9,2.47-5.28.52-3.12.48-3.81-.23-4.41-.54-.48-.68-.5-2.15-.37-.91.08-2.01.04-2.59-.08q-1.66-.35-1.08-1.04c.79-.93,1.03-1.95.89-3.52-.1-1.22-.06-1.51.42-2.44.93-1.86,2.98-3.19,4.39-2.84,1.12.27,5.01,2.73,5.32,3.33.41.85.77,1.12,1.49,1.12,2.09,0,2.88-1.95,1.57-3.91-.95-1.43-3.13-6.05-3.02-6.42.08-.31-.02-.46-.46-.56-.39-.1-.52-.23-.43-.48.06-.19.29-.85.5-1.47.23-.62.37-1.18.33-1.22-.12-.14-.54.25-1.1,1.02l-.58.81.09-1.08.08-1.08-.68.75c-.37.39-.77.89-.89,1.08-.17.29-.33.33-.89.17ZM82.75,62.99c-.23.15-.46.21-.48.17-.04-.04-.73-.81-1.53-1.74l-1.45-1.68.85-.44c1.12-.56,1.18-.56,1.18.04,0,.77.37,1.57,1.16,2.55.7.85.7.87.27,1.1ZM84.59,60.57c-.68-.6-.83-1.1-.68-2.07.06-.52.19-.89.23-.83.06.04.27.81.48,1.68.37,1.57.37,1.59-.02,1.22ZM106.64,64.05c-.95-1.43-3.13-6.05-3.02-6.42.08-.31-.02-.46-.46-.56-.39-.1-.52-.23-.43-.48.06-.19.29-.85.5-1.47.23-.62.37-1.18.33-1.22-.12-.14-.54.25-1.1,1.02l-.58.81.09-1.08.08-1.08-.68.75c-.37.39-.77.89-.89,1.08-.17.29-.33.33-.89.17-.37-.13-1.32-.27-2.11-.35-1.22-.12-1.45-.08-1.45.19,0,.23-.31.35-1.2.46-.66.06-1.32.1-1.47.06-.17-.04-.35.12-.42.35-.31,1.06-.56,1.24-1.63,1.18-.75-.02-1.1.06-1.3.31-.17.19-.85.75-1.53,1.26l-1.24.91-.27-.66c-.27-.68-.7-4.54-.52-4.83.04-.08.19-.1.29-.02.25.15,1.01-.5,1.01-.87,0-.15.19-.46.44-.68.27-.25.39-.54.31-.79-.08-.27.06-.48.5-.73l.6-.33-1.2-1.26c-1.04-1.08-1.3-1.26-1.95-1.26-1.68,0-2.75,1.18-2.57,2.79.1,1.06-.04,1.22-1.16,1.43-.42.08-1.45.5-2.28.95-1.08.56-2.07.89-3.48,1.16-2.28.41-3.79,1.03-4.58,1.88l-.58.6.6.35c.46.27.7.64.93,1.45.35,1.2.77,1.68,3.37,3.67.95.7,1.66,1.39,1.57,1.49-.21.35-3.54.06-4.93-.44-2.07-.74-1.97-.74-1.97-.19,0,.27.17.83.4,1.26l.37.74-.64.23c-.35.11-2.24.21-4.16.21-3.52-.02-4.95.15-6.77.75l-.99.31-1.24-.77c-1.16-.7-1.32-.75-2.46-.64-1.59.15-2.75.68-5.57,2.59-3.79,2.57-4.29,2.82-5.84,2.82-1.08,0-1.57-.1-2.42-.56-.77-.39-1.1-.48-1.1-.29,0,.5,1.28,1.59,2.26,1.91l.95.31-1.24-.1c-.68-.06-1.47-.17-1.74-.23-.33-.11-.46-.08-.35.08.27.46,2.5,1.12,3.83,1.14,1.03,0,1.22.04.83.21-.27.11-1.28.13-2.26.06l-1.76-.1.81.5c.43.25,1.18.54,1.65.6.89.15,2.75-.13,3.44-.5.21-.11.46-.21.56-.21.31,0-1.55.99-2.65,1.41l-1.08.39.79.13c1.35.23,3.04-.23,4.76-1.26l.83-.52-.62.68c-.33.37-1.03.95-1.55,1.28l-.93.6.93-.15c1.22-.17,3.21-1.22,4.22-2.24.5-.5,1.14-1.55,1.72-2.79,1.76-3.85,1.8-3.89,3-3.67l.75.15-.68,1.14c-.81,1.34-1.06,2.71-.85,5.03.1,1.26.06,1.68-.21,2.05-.39.56-1.76,1.26-3.65,1.89-1.72.58-2.34,1.22-2.51,2.67-.15,1.28-1.34,4.24-2.19,5.51-.54.79-.85,1.01-1.61,1.22-.52.12-1.08.43-1.22.66-.35.56-1.12,2.73-1.12,3.23,0,.66.58,1.01,1.7,1.01,1.2,0,1.97-.46,2.65-1.55.25-.4.97-1.1,1.63-1.55.97-.68,1.26-1.01,1.47-1.72.4-1.35,1.62-3.91,2.13-4.45,1.1-1.18,1.8-1.35,6.15-1.47,3.77-.12,4.1-.17,5.05-.64,1.22-.62,2.82-2.13,3.29-3.15.6-1.26,1.03-1.51,2.92-1.57,1.28-.06,2.42.08,4.8.56,3.56.72,5.65.81,8.14.31,1.51-.31,1.76-.31,3.11,0,.79.19,2.3.33,3.31.33,1.2,0,1.89.08,1.89.23,0,.46-1.08,2.05-1.89,2.75-.56.52-1.01.75-1.45.75-1.22,0-2.63,2.24-2.07,3.29.15.23.37.43.54.43.5,0,2.16-.79,3.4-1.63,1.47-.99,2.28-2.07,3.85-5.13,1.08-2.07,1.24-2.3,1.59-2.11.56.31.33,1.74-.58,3.65-.42.88-.86,1.57-1.38,2.16-.03.03-.06.06-.09.08-.56.52-1.01.75-1.45.75-1.22,0-2.63,2.24-2.07,3.29.15.23.37.44.54.44.5,0,2.15-.79,3.4-1.63.09-.06.17-.12.26-.18.21-.15.4-.3.59-.47l.4-.39.26-.25c1.35-1.32,2.09-2.9,2.47-5.28.52-3.12.48-3.81-.23-4.41-.54-.48-.68-.5-2.15-.37-.91.08-2.01.04-2.59-.08q-1.66-.35-1.08-1.04c.79-.93,1.03-1.95.89-3.52-.1-1.22-.06-1.51.42-2.44.93-1.86,2.98-3.19,4.39-2.84,1.12.27,5.01,2.73,5.32,3.33.41.85.77,1.12,1.49,1.12,2.09,0,2.88-1.95,1.57-3.91ZM82.75,62.99c-.23.15-.46.21-.48.17-.04-.04-.73-.81-1.53-1.74l-1.45-1.68.85-.44c1.12-.56,1.18-.56,1.18.04,0,.77.37,1.57,1.16,2.55.7.85.7.87.27,1.1ZM84.59,60.57c-.68-.6-.83-1.1-.68-2.07.06-.52.19-.89.23-.83.06.04.27.81.48,1.68.37,1.57.37,1.59-.02,1.22ZM106.64,64.05c-.95-1.43-3.13-6.05-3.02-6.42.08-.31-.02-.46-.46-.56-.39-.1-.52-.23-.43-.48.06-.19.29-.85.5-1.47.23-.62.37-1.18.33-1.22-.12-.14-.54.25-1.1,1.02l-.58.81.09-1.08.08-1.08-.68.75c-.37.39-.77.89-.89,1.08-.17.29-.33.33-.89.17-.37-.13-1.32-.27-2.11-.35-1.22-.12-1.45-.08-1.45.19,0,.23-.31.35-1.2.46-.66.06-1.32.1-1.47.06-.17-.04-.35.12-.42.35-.31,1.06-.56,1.24-1.63,1.18-.75-.02-1.1.06-1.3.31-.17.19-.85.75-1.53,1.26l-1.24.91-.27-.66c-.27-.68-.7-4.54-.52-4.83.04-.08.19-.1.29-.02.25.15,1.01-.5,1.01-.87,0-.15.19-.46.44-.68.27-.25.39-.54.31-.79-.08-.27.06-.48.5-.73l.6-.33-1.2-1.26c-1.04-1.08-1.3-1.26-1.95-1.26-1.68,0-2.75,1.18-2.57,2.79.1,1.06-.04,1.22-1.16,1.43-.42.08-1.45.5-2.28.95-1.08.56-2.07.89-3.48,1.16-2.28.41-3.79,1.03-4.58,1.88l-.58.6.6.35c.46.27.7.64.93,1.45.35,1.2.77,1.68,3.37,3.67.95.7,1.66,1.39,1.57,1.49-.21.35-3.54.06-4.93-.44-2.07-.74-1.97-.74-1.97-.19,0,.27.17.83.4,1.26l.37.74-.64.23c-.35.11-2.24.21-4.16.21-3.52-.02-4.95.15-6.77.75l-.99.31-1.24-.77c-1.16-.7-1.32-.75-2.46-.64-1.59.15-2.75.68-5.57,2.59-3.79,2.57-4.29,2.82-5.84,2.82-1.08,0-1.57-.1-2.42-.56-.77-.39-1.1-.48-1.1-.29,0,.5,1.28,1.59,2.26,1.91l.95.31-1.24-.1c-.68-.06-1.47-.17-1.74-.23-.33-.11-.46-.08-.35.08.27.46,2.5,1.12,3.83,1.14,1.03,0,1.22.04.83.21-.27.11-1.28.13-2.26.06l-1.76-.1.81.5c.43.25,1.18.54,1.65.6.89.15,2.75-.13,3.44-.5.21-.11.46-.21.56-.21.31,0-1.55.99-2.65,1.41l-1.08.39.79.13c1.35.23,3.04-.23,4.76-1.26l.83-.52-.62.68c-.33.37-1.03.95-1.55,1.28l-.93.6.93-.15c1.22-.17,3.21-1.22,4.22-2.24.5-.5,1.14-1.55,1.72-2.79,1.76-3.85,1.8-3.89,3-3.67l.75.15-.68,1.14c-.81,1.34-1.06,2.71-.85,5.03.1,1.26.06,1.68-.21,2.05-.39.56-1.76,1.26-3.65,1.89-1.72.58-2.34,1.22-2.51,2.67-.15,1.28-1.34,4.24-2.19,5.51-.54.79-.85,1.01-1.61,1.22-.52.12-1.08.43-1.22.66-.35.56-1.12,2.73-1.12,3.23,0,.66.58,1.01,1.7,1.01,1.2,0,1.97-.46,2.65-1.55.25-.4.97-1.1,1.63-1.55.97-.68,1.26-1.01,1.47-1.72.4-1.35,1.62-3.91,2.13-4.45,1.1-1.18,1.8-1.35,6.15-1.47,3.77-.12,4.1-.17,5.05-.64,1.22-.62,2.82-2.13,3.29-3.15.6-1.26,1.03-1.51,2.92-1.57,1.28-.06,2.42.08,4.8.56,3.56.72,5.65.81,8.14.31,1.51-.31,1.76-.31,3.11,0,.79.19,2.3.33,3.31.33,1.2,0,1.89.08,1.89.23,0,.46-1.08,2.05-1.89,2.75-.56.52-1.01.75-1.45.75-1.22,0-2.63,2.24-2.07,3.29.15.23.37.43.54.43.5,0,2.16-.79,3.4-1.63,1.47-.99,2.28-2.07,3.85-5.13,1.08-2.07,1.24-2.3,1.59-2.11.56.31.33,1.74-.58,3.65-.42.88-.86,1.57-1.38,2.16-.03.03-.06.06-.09.08-.56.52-1.01.75-1.45.75-1.22,0-2.63,2.24-2.07,3.29.15.23.37.44.54.44.5,0,2.15-.79,3.4-1.63.09-.06.17-.12.26-.18.21-.15.4-.3.59-.47l.4-.39.26-.25c1.35-1.32,2.09-2.9,2.47-5.28.52-3.12.48-3.81-.23-4.41-.54-.48-.68-.5-2.15-.37-.91.08-2.01.04-2.59-.08q-1.66-.35-1.08-1.04c.79-.93,1.03-1.95.89-3.52-.1-1.22-.06-1.51.42-2.44.93-1.86,2.98-3.19,4.39-2.84,1.12.27,5.01,2.73,5.32,3.33.41.85.77,1.12,1.49,1.12,2.09,0,2.88-1.95,1.57-3.91ZM82.75,62.99c-.23.15-.46.21-.48.17-.04-.04-.73-.81-1.53-1.74l-1.45-1.68.85-.44c1.12-.56,1.18-.56,1.18.04,0,.77.37,1.57,1.16,2.55.7.85.7.87.27,1.1ZM84.59,60.57c-.68-.6-.83-1.1-.68-2.07.06-.52.19-.89.23-.83.06.04.27.81.48,1.68.37,1.57.37,1.59-.02,1.22ZM106.64,64.05c-.95-1.43-3.13-6.05-3.02-6.42.08-.31-.02-.46-.46-.56-.39-.1-.52-.23-.43-.48.06-.19.29-.85.5-1.47.23-.62.37-1.18.33-1.22-.12-.14-.54.25-1.1,1.02l-.58.81.09-1.08.08-1.08-.68.75c-.37.39-.77.89-.89,1.08-.17.29-.33.33-.89.17-.37-.13-1.32-.27-2.11-.35-1.22-.12-1.45-.08-1.45.19,0,.23-.31.35-1.2.46-.66.06-1.32.1-1.47.06-.17-.04-.35.12-.42.35-.31,1.06-.56,1.24-1.63,1.18-.75-.02-1.1.06-1.3.31-.17.19-.85.75-1.53,1.26l-1.24.91-.27-.66c-.27-.68-.7-4.54-.52-4.83.04-.08.19-.1.29-.02.25.15,1.01-.5,1.01-.87,0-.15.19-.46.44-.68.27-.25.39-.54.31-.79-.08-.27.06-.48.5-.73l.6-.33-1.2-1.26c-1.04-1.08-1.3-1.26-1.95-1.26-1.68,0-2.75,1.18-2.57,2.79.1,1.06-.04,1.22-1.16,1.43-.42.08-1.45.5-2.28.95-1.08.56-2.07.89-3.48,1.16-2.28.41-3.79,1.03-4.58,1.88l-.58.6.6.35c.46.27.7.64.93,1.45.35,1.2.77,1.68,3.37,3.67.95.7,1.66,1.39,1.57,1.49-.21.35-3.54.06-4.93-.44-2.07-.74-1.97-.74-1.97-.19,0,.27.17.83.4,1.26l.37.74-.64.23c-.35.11-2.24.21-4.16.21-3.52-.02-4.95.15-6.77.75l-.99.31-1.24-.77c-1.16-.7-1.32-.75-2.46-.64-1.59.15-2.75.68-5.57,2.59-3.79,2.57-4.29,2.82-5.84,2.82-1.08,0-1.57-.1-2.42-.56-.77-.39-1.1-.48-1.1-.29,0,.5,1.28,1.59,2.26,1.91l.95.31-1.24-.1c-.68-.06-1.47-.17-1.74-.23-.33-.11-.46-.08-.35.08.27.46,2.5,1.12,3.83,1.14,1.03,0,1.22.04.83.21-.27.11-1.28.13-2.26.06l-1.76-.1.81.5c.43.25,1.18.54,1.65.6.89.15,2.75-.13,3.44-.5.21-.11.46-.21.56-.21.31,0-1.55.99-2.65,1.41l-1.08.39.79.13c1.35.23,3.04-.23,4.76-1.26l.83-.52-.62.68c-.33.37-1.03.95-1.55,1.28l-.93.6.93-.15c1.22-.17,3.21-1.22,4.22-2.24.5-.5,1.14-1.55,1.72-2.79,1.76-3.85,1.8-3.89,3-3.67l.75.15-.68,1.14c-.81,1.34-1.06,2.71-.85,5.03.1,1.26.06,1.68-.21,2.05-.39.56-1.76,1.26-3.65,1.89-1.72.58-2.34,1.22-2.51,2.67-.15,1.28-1.34,4.24-2.19,5.51-.54.79-.85,1.01-1.61,1.22-.52.12-1.08.43-1.22.66-.35.56-1.12,2.73-1.12,3.23,0,.66.58,1.01,1.7,1.01,1.2,0,1.97-.46,2.65-1.55.25-.4.97-1.1,1.63-1.55.97-.68,1.26-1.01,1.47-1.72.4-1.35,1.62-3.91,2.13-4.45,1.1-1.18,1.8-1.35,6.15-1.47,3.77-.12,4.1-.17,5.05-.64,1.22-.62,2.82-2.13,3.29-3.15.6-1.26,1.03-1.51,2.92-1.57,1.28-.06,2.42.08,4.8.56,3.56.72,5.65.81,8.14.31,1.51-.31,1.76-.31,3.11,0,.79.19,2.3.33,3.31.33,1.2,0,1.89.08,1.89.23,0,.46-1.08,2.05-1.89,2.75-.56.52-1.01.75-1.45.75-1.22,0-2.63,2.24-2.07,3.29.15.23.37.43.54.43.5,0,2.16-.79,3.4-1.63,1.47-.99,2.28-2.07,3.85-5.13,1.08-2.07,1.24-2.3,1.59-2.11.56.31.33,1.74-.58,3.65-.42.88-.86,1.57-1.38,2.16-.03.03-.06.06-.09.08-.56.52-1.01.75-1.45.75-1.22,0-2.63,2.24-2.07,3.29.15.23.37.44.54.44.5,0,2.15-.79,3.4-1.63.09-.06.17-.12.26-.18.21-.15.4-.3.59-.47l.4-.39.26-.25c1.35-1.32,2.09-2.9,2.47-5.28.52-3.12.48-3.81-.23-4.41-.54-.48-.68-.5-2.15-.37-.91.08-2.01.04-2.59-.08q-1.66-.35-1.08-1.04c.79-.93,1.03-1.95.89-3.52-.1-1.22-.06-1.51.42-2.44.93-1.86,2.98-3.19,4.39-2.84,1.12.27,5.01,2.73,5.32,3.33.41.85.77,1.12,1.49,1.12,2.09,0,2.88-1.95,1.57-3.91ZM82.75,62.99c-.23.15-.46.21-.48.17-.04-.04-.73-.81-1.53-1.74l-1.45-1.68.85-.44c1.12-.56,1.18-.56,1.18.04,0,.77.37,1.57,1.16,2.55.7.85.7.87.27,1.1ZM84.59,60.57c-.68-.6-.83-1.1-.68-2.07.06-.52.19-.89.23-.83.06.04.27.81.48,1.68.37,1.57.37,1.59-.02,1.22Z"/></g></svg>